<?xml version="1.0" standalone="no"?>
<!DOCTYPE svg PUBLIC "-//W3C//DTD SVG 20010904//EN"
 "http://www.w3.org/TR/2001/REC-SVG-20010904/DTD/svg10.dtd">
<svg version="1.0" xmlns="http://www.w3.org/2000/svg"
 width="616.000000pt" height="616.000000pt" viewBox="0 0 616.000000 616.000000"
 preserveAspectRatio="xMidYMid meet">
<metadata>
Created by potrace 1.14, written by Peter Selinger 2001-2017
</metadata>
<g transform="translate(0.000000,616.000000) scale(0.100000,-0.100000)"
fill="#000000" stroke="none">
<path d="M1322 5293 c-18 -33 -130 -337 -162 -438 -48 -151 -48 -176 -5 -264
45 -94 72 -131 94 -131 10 0 60 21 112 46 52 26 130 62 174 81 44 19 92 39
108 46 20 9 27 19 27 39 0 14 -51 127 -113 250 -62 123 -129 260 -149 306 -29
64 -41 82 -57 82 -11 0 -24 -8 -29 -17z"/>
<path d="M4116 5078 c-85 -166 -98 -196 -93 -229 3 -20 32 -92 66 -160 111
-228 120 -239 152 -201 16 19 115 183 193 320 55 97 54 103 -14 203 -22 32
-40 61 -40 63 0 2 -25 41 -56 87 -56 85 -79 109 -99 109 -6 0 -55 -86 -109
-192z"/>
<path d="M2765 4884 c-6 -1 -39 -11 -75 -22 -36 -11 -77 -22 -91 -26 -30 -7
-45 -32 -29 -51 5 -6 49 -18 97 -25 80 -12 91 -17 123 -50 32 -33 49 -74 65
-155 4 -25 -1 -37 -33 -72 -36 -39 -43 -42 -108 -49 -38 -3 -78 -8 -89 -10
-11 -3 -38 -7 -60 -10 -45 -7 -61 -23 -42 -42 7 -7 59 -26 116 -42 57 -16 113
-36 125 -43 24 -16 42 -11 168 46 53 23 60 31 91 94 19 37 47 97 61 132 l27
63 -43 75 c-70 123 -88 138 -198 166 -52 13 -100 22 -105 21z"/>
<path d="M4954 4351 c-26 -64 -75 -173 -79 -179 -5 -6 -53 -12 -140 -18 -49
-4 -94 -10 -98 -14 -9 -8 1 -40 13 -40 7 0 135 -96 173 -129 4 -4 -9 -46 -28
-93 -47 -117 -54 -163 -27 -177 17 -9 36 -1 127 59 58 39 109 71 114 73 7 2
43 -24 124 -91 66 -54 78 -58 99 -32 10 12 18 27 18 34 0 6 -17 62 -38 123
l-38 113 59 52 c33 29 73 62 88 73 37 26 41 74 7 77 -26 2 -99 5 -175 7 -49 1
-54 3 -66 34 -8 17 -20 57 -27 87 -17 66 -34 96 -59 103 -15 4 -24 -8 -47 -62z
m130 -497 c7 -19 2 -18 -19 6 -16 17 -16 20 -3 15 9 -4 19 -13 22 -21z"/>
<path d="M416 4024 c-107 -27 -126 -45 -122 -114 3 -63 -1 -70 -43 -70 -70 0
-76 -12 -77 -152 0 -67 3 -131 8 -140 7 -14 21 -18 62 -18 l54 0 0 -34 c0 -64
13 -115 30 -120 24 -7 149 -18 200 -17 52 0 119 18 128 33 8 12 7 72 -1 117
-6 33 5 40 52 36 16 -1 40 5 51 14 19 14 22 28 25 139 2 89 0 128 -10 141 -20
29 -76 58 -103 54 -23 -3 -26 0 -27 38 -1 30 -10 50 -35 79 -39 46 -58 48
-192 14z"/>
<path d="M2654 3920 c-21 -11 -87 -60 -146 -110 -82 -69 -116 -91 -145 -95
-123 -18 -238 -74 -288 -139 -15 -20 -48 -47 -74 -60 -191 -97 -415 -236 -530
-331 -90 -74 -172 -144 -206 -177 -38 -36 -65 -48 -65 -29 0 15 -113 125 -145
141 -16 8 -32 17 -35 20 -6 6 -47 25 -75 35 -24 9 -88 9 -133 1 -87 -16 -176
-83 -226 -169 -58 -98 -97 -289 -84 -412 4 -38 9 -91 12 -117 3 -27 7 -52 10
-56 3 -5 8 -23 11 -41 3 -18 17 -60 30 -94 29 -71 29 -71 9 -63 -42 16 -518
106 -534 101 -25 -8 -35 -42 -20 -70 9 -17 27 -25 83 -34 40 -7 88 -17 107
-22 19 -4 136 -29 260 -54 124 -26 252 -53 285 -60 702 -163 1375 -333 1850
-466 39 -11 97 -27 130 -35 33 -8 74 -19 90 -24 25 -9 366 -103 415 -115 8 -2
98 -27 200 -55 196 -53 405 -110 430 -115 8 -2 42 -11 75 -20 124 -34 451
-117 475 -121 14 -3 32 -7 40 -10 8 -3 24 -8 35 -10 11 -2 110 -26 220 -53
110 -27 211 -52 225 -55 14 -3 135 -30 270 -61 135 -30 254 -57 265 -59 11 -2
70 -14 130 -26 157 -31 221 -36 228 -17 11 29 -18 47 -123 77 -58 16 -118 34
-135 39 -16 6 -72 20 -123 31 -77 18 -93 25 -89 39 3 9 19 48 35 86 45 108 80
278 84 413 1 41 2 42 36 42 67 0 131 55 159 136 37 108 -18 320 -109 414 -13
14 -32 37 -41 52 -10 15 -41 41 -70 58 -46 26 -59 30 -112 26 -33 -2 -67 -7
-76 -11 -11 -4 -22 3 -34 22 -10 15 -33 43 -50 62 l-32 33 13 72 c22 126 24
140 31 221 7 88 8 187 1 280 -4 55 -7 61 -34 74 -16 8 -58 15 -94 15 -68 0
-230 -13 -241 -19 -3 -2 -28 -7 -55 -10 -27 -4 -76 -13 -109 -22 -33 -8 -67
-16 -76 -18 -23 -5 -81 -22 -100 -29 -9 -4 -23 -1 -30 7 -31 31 -171 128 -267
186 -276 166 -741 360 -1123 467 -42 12 -60 23 -73 44 -35 61 -237 299 -254
301 -4 0 -16 2 -28 4 -11 3 -38 -4 -60 -15z"/>
<path d="M5926 3408 c-11 -6 -31 -21 -45 -34 -103 -90 -94 -85 -111 -63 -11
14 -34 23 -72 28 -66 9 -74 4 -139 -90 l-46 -65 3 -80 c1 -43 3 -87 3 -98 1
-10 38 -53 83 -96 61 -59 91 -98 122 -157 54 -102 67 -104 125 -19 41 61 89
103 235 204 30 21 46 38 42 47 -2 7 -1 15 5 17 5 2 12 50 16 108 11 191 19
166 -76 242 -85 68 -109 77 -145 56z"/>
</g>
</svg>
